# xmcd
#
# Track frame offsets: 
#        150
#        17539
#        30846
#        44387
#        61041
#        74633
#        88755
#        101988
#        120407
#        135737
#        149130
#        162955
#        178042
#        194025
#        205494
#        219233
#        233528
#        246607
#        263816
#        280390
#
# Disc length: 3909 seconds
#
# Revision: 0
# Processed by: cddbd v1.5.2PL0 Copyright (c) Steve Scherf et al.
# Submitted via: ExactAudioCopy v0.99pb5
#
DISCID=320f4314
DTITLE=Various Artist - Die Volkstümliche Hitparade
DYEAR=2009
DGENRE=Volksmusik
TTITLE0=Kastelruther Spatzen - Gloria, das neue Spatzenlied
TTITLE1=Stefanie Hertel - Ein kleiner Kuss (sagt mehr als 1000 Worte)
TTITLE2=Waltraud and Mariechen - Du hast mir gerade noch gefehlt
TTITLE3=Johannes Kalpers - Solang die Welt sich dreht
TTITLE4=Claudia Dechant - Nimm diesen Ring
TTITLE5=Eva-Maria - Du musst noch gar nicht in die Ferne schweifen
TTITLE6=Gunter Emmerlich - Die Legende von Jericho
TTITLE7=Alle für Alle - Zeig dein Gesicht
TTITLE8=Eberhard Hertel - Auf Wiederseh'n Freunde
TTITLE9=Barbara Dorfer - Lebe deinen Traum
TTITLE10=Henry Valentino - Swing ist einfach wunderbar
TTITLE11=Silke and Dirk Spielberg - Fang meine Träume auf
TTITLE12=Heike Schäfer - Der Sommer ohne Dich
TTITLE13=Markus Linzer - Petticoat und Rock 'n Roll
TTITLE14=Stefan Roos and Sängerfreunde - Das Herz einer Mutter
TTITLE15=Speelwark - Hallo Tag
TTITLE16=Nicole Blum - Wenn du gehn willst .....
TTITLE17=Bert Silver - Zusammen geh'n - Zusammen steh'n
TTITLE18=Regina Thoss - Mein Grund für die Liebe
TTITLE19=Die jungen Zillertaler - Drobn auf'm Berg
EXTD=
EXTT0=
EXTT1=
EXTT2=
EXTT3=
EXTT4=
EXTT5=
EXTT6=
EXTT7=
EXTT8=
EXTT9=
EXTT10=
EXTT11=
EXTT12=
EXTT13=
EXTT14=
EXTT15=
EXTT16=
EXTT17=
EXTT18=
EXTT19=
PLAYORDER=
